HIERARCHY
ROOT Hips
{
 OFFSET 0.000000 0.000000 0.000000
 CHANNELS 6 Xposition Yposition Zposition Yrotation Xrotation Zrotation
 JOINT Chest
 {
  OFFSET 0.000000 9.585900 0.002600
  CHANNELS 3 Yrotation Xrotation Zrotation
  JOINT Chest2
  {
   OFFSET 0.000000 9.601200 -0.005300
   CHANNELS 3 Yrotation Xrotation Zrotation
   JOINT Chest3
   {
    OFFSET 0.000000 9.561800 0.000000
    CHANNELS 3 Yrotation Xrotation Zrotation
    JOINT Chest4
    {
     OFFSET 0.000000 9.552100 0.000000
     CHANNELS 3 Yrotation Xrotation Zrotation
     JOINT Neck
     {
      OFFSET 0.000000 14.453000 0.000000
      CHANNELS 3 Yrotation Xrotation Zrotation
      JOINT Head
      {
       OFFSET 0.000000 8.936500 -0.011300
       CHANNELS 3 Yrotation Xrotation Zrotation
       End Site
       {
        OFFSET 0.000000 17.073600 -0.006000
       }
      }
     }
     JOINT RightCollar
     {
      OFFSET -2.921100 9.558500 0.000000
      CHANNELS 3 Yrotation Xrotation Zrotation
      JOINT RightShoulder
      {
       OFFSET -13.519700 0.000000 0.000000
       CHANNELS 3 Yrotation Xrotation Zrotation
       JOINT RightElbow
       {
        OFFSET 0.000000 -29.696600 0.000000
        CHANNELS 3 Yrotation Xrotation Zrotation
        JOINT RightWrist
        {
         OFFSET 0.000000 -24.004700 0.000000
         CHANNELS 3 Yrotation Xrotation Zrotation
         End Site
         {
          OFFSET 0.000000 -17.728500 0.000000
         }
        }
       }
      }
     }
     JOINT LeftCollar
     {
      OFFSET 2.921100 9.558500 0.000000
      CHANNELS 3 Yrotation Xrotation Zrotation
      JOINT LeftShoulder
      {
       OFFSET 13.519700 0.000000 0.000000
       CHANNELS 3 Yrotation Xrotation Zrotation
       JOINT LeftElbow
       {
        OFFSET 0.000000 -29.696600 0.000000
        CHANNELS 3 Yrotation Xrotation Zrotation
        JOINT LeftWrist
        {
         OFFSET 0.000000 -24.004700 0.000000
         CHANNELS 3 Yrotation Xrotation Zrotation
         End Site
         {
          OFFSET 0.000000 -17.728500 0.000000
         }
        }
       }
      }
     }
    }
   }
  }
 }
 JOINT RightHip
 {
  OFFSET -7.771700 -0.012900 -0.001300
  CHANNELS 3 Yrotation Xrotation Zrotation
  JOINT RightKnee
  {
   OFFSET 0.000000 -40.869800 0.001200
   CHANNELS 3 Yrotation Xrotation Zrotation
   JOINT RightAnkle
   {
    OFFSET 0.000000 -39.717900 0.002100
    CHANNELS 3 Yrotation Xrotation Zrotation
    JOINT RightToe
    {
     OFFSET 0.000000 -4.965400 11.033500
     CHANNELS 3 Yrotation Xrotation Zrotation
     End Site
     {
      OFFSET 0.000000 -1.423100 5.872300
     }
    }
   }
  }
 }
 JOINT LeftHip
 {
  OFFSET 7.771700 -0.012900 -0.001300
  CHANNELS 3 Yrotation Xrotation Zrotation
  JOINT LeftKnee
  {
   OFFSET 0.000000 -40.869800 0.001200
   CHANNELS 3 Yrotation Xrotation Zrotation
   JOINT LeftAnkle
   {
    OFFSET 0.000000 -39.717900 0.002100
    CHANNELS 3 Yrotation Xrotation Zrotation
    JOINT LeftToe
    {
     OFFSET 0.000000 -4.965400 11.033500
     CHANNELS 3 Yrotation Xrotation Zrotation
     End Site
     {
      OFFSET 0.000000 -1.423100 5.872300
     }
    }
   }
  }
 }
}
MOTION
Frames: 16
Frame Time: 0.008333
-18.799808 43.767653 25.291154 176.695434 -27.972817 -1.345687 0.574296 22.262813 1.585603 0.042172 3.125825 0.276094 0.064572 5.070356 0.441263 0.484680 18.864779 1.734747 -3.150065 9.699914 -3.205794 -2.621868 -15.451550 -2.753534 13.568610 -0.329622 -5.009893 -18.085644 -5.312007 -5.064692 169.155096 -81.691512 -161.779828 2.546235 8.641919 -8.385210 -16.240612 -3.507428 -5.638057 19.020909 -4.994060 5.609516 110.665639 -61.222323 -133.893072 21.314107 16.942518 35.482601 -3.258283 -62.518057 9.802530 -155.936833 66.802717 -153.977407 -10.091248 -26.323094 8.588215 0.192952 -0.654495 0.061801 3.307035 -46.872005 0.552966 -179.936369 56.575607 179.244537 -3.490810 -42.287869 4.031455 -0.077853 -6.227416 1.772945
-18.798979 43.768741 25.292475 176.690337 -27.960094 -1.329992 0.576692 22.254262 1.575398 0.042991 3.119900 0.277019 0.065396 5.067485 0.438813 0.490322 18.854830 1.732671 -3.135442 9.714756 -3.222478 -2.632074 -15.437757 -2.746788 13.562867 -0.349402 -5.024515 -18.071452 -5.292129 -5.069542 169.124877 -81.705583 -161.748511 2.588895 8.635034 -8.308990 -16.274851 -3.530263 -5.610261 19.047780 -4.961800 5.617675 110.600888 -61.210692 -133.873029 21.332867 16.954044 35.474265 -3.271379 -62.531174 9.808246 -155.942867 66.802221 -153.991014 -10.113671 -26.334041 8.589486 0.202189 -0.662966 0.065949 3.317930 -46.881784 0.541143 -179.935630 56.582259 179.242926 -3.497173 -42.287607 4.032133 -0.080155 -6.223362 1.772866
-18.796267 43.769110 25.294866 176.672806 -27.941138 -1.322832 0.595818 22.235057 1.584677 0.043473 3.117764 0.272836 0.067279 5.061602 0.440469 0.493731 18.848844 1.725638 -3.131130 9.725258 -3.224887 -2.626628 -15.426584 -2.750146 13.556694 -0.372289 -5.038726 -18.049727 -5.276969 -5.079170 169.088079 -81.717472 -161.702225 2.608480 8.636320 -8.264796 -16.290876 -3.524374 -5.600117 19.046554 -4.972198 5.661718 110.514102 -61.179730 -133.811988 21.331316 16.983671 35.437622 -3.304242 -62.551186 9.844805 -155.893362 66.800063 -153.947610 -10.110617 -26.327155 8.571082 0.229156 -0.669913 0.076219 3.324735 -46.898952 0.549536 -179.927192 56.585904 179.250333 -3.496210 -42.291554 4.029597 -0.078644 -6.218012 1.771573
-18.797197 43.768586 25.298049 176.649994 -27.915513 -1.295044 0.614636 22.211021 1.575026 0.041158 3.113592 0.269591 0.068497 5.057155 0.437038 0.498872 18.842857 1.723135 -3.133314 9.735802 -3.222821 -2.623834 -15.421836 -2.750751 13.547983 -0.379694 -5.041496 -18.027136 -5.280571 -5.093858 169.087426 -81.735450 -161.681660 2.607145 8.638334 -8.272387 -16.306159 -3.519362 -5.589076 19.047673 -4.971688 5.678706 110.475359 -61.175266 -133.796414 21.323812 16.979830 35.434690 -3.310620 -62.582207 9.838218 -155.888829 66.801869 -153.964676 -10.055168 -26.313383 8.551910 0.211488 -0.690609 0.069570 3.358728 -46.922383 0.525598 -179.923039 56.592477 179.251592 -3.492407 -42.290934 4.025065 -0.081646 -6.213954 1.773156
-18.799768 43.769066 25.298860 176.639455 -27.905453 -1.265528 0.614877 22.200878 1.551810 0.041519 3.112370 0.269087 0.073179 5.053221 0.435213 0.501505 18.834350 1.723050 -3.135389 9.747494 -3.224035 -2.621094 -15.418011 -2.750138 13.538876 -0.384607 -5.047163 -17.996116 -5.288038 -5.108994 169.182651 -81.762367 -161.760306 2.615393 8.637616 -8.285617 -16.321685 -3.544400 -5.554374 19.057176 -4.932691 5.676644 110.454520 -61.181160 -133.792348 21.315509 16.970486 35.423882 -3.262065 -62.595061 9.788045 -155.882418 66.803121 -153.959321 -10.061171 -26.304114 8.553219 0.197996 -0.706944 0.074659 3.393253 -46.928383 0.489379 -179.922595 56.600002 179.250425 -3.495511 -42.286750 4.026357 -0.080790 -6.213263 1.774286
-18.799530 43.768879 25.301008 176.619540 -27.888623 -1.251067 0.629945 22.182981 1.549984 0.041992 3.111157 0.268706 0.075601 5.047550 0.437632 0.501671 18.830113 1.717904 -3.125224 9.751609 -3.225026 -2.614750 -15.412167 -2.752975 13.547714 -0.431793 -5.088093 -17.971367 -5.247541 -5.106205 169.325512 -81.791124 -161.889271 2.623792 8.638855 -8.282345 -16.330452 -3.550248 -5.538567 19.062745 -4.915060 5.673899 110.458880 -61.198622 -133.810743 21.307681 16.962442 35.407595 -3.255869 -62.617651 9.780893 -155.841401 66.804201 -153.918009 -10.033534 -26.264961 8.529394 0.207076 -0.733303 0.079991 3.414057 -46.944583 0.483888 -179.926323 56.602656 179.246980 -3.496785 -42.284162 4.024166 -0.082486 -6.213971 1.773899
-18.796660 43.767938 25.304754 176.591508 -27.863221 -1.249814 0.657307 22.155834 1.567348 0.042657 3.107928 0.267902 0.079570 5.036757 0.437321 0.497752 18.840955 1.713764 -3.112708 9.748093 -3.226245 -2.605506 -15.402253 -2.755134 13.550334 -0.441765 -5.095824 -17.937800 -5.263336 -5.124862 169.836448 -81.844093 -162.338954 2.651963 8.646521 -8.334027 -16.333484 -3.554010 -5.530541 19.066139 -4.910328 5.676297 110.460242 -61.210867 -133.822109 21.311091 16.955789 35.402865 -3.265215 -62.649331 9.801819 -155.784523 66.807902 -153.856607 -9.980438 -26.214393 8.485497 0.191874 -0.756049 0.089720 3.422052 -46.973329 0.504204 -179.933312 56.600862 179.242980 -3.496526 -42.281794 4.018680 -0.082659 -6.216474 1.771302
-18.797637 43.769226 25.303826 176.590837 -27.867808 -1.235697 0.656581 22.155098 1.558678 0.045940 3.098802 0.271339 0.074244 5.045410 0.430666 0.503294 18.829590 1.709973 -3.105253 9.759072 -3.223126 -2.598098 -15.390594 -2.753156 13.546880 -0.440310 -5.094219 -17.907600 -5.283657 -5.145445 170.348143 -81.906404 -162.818752 2.619261 8.650761 -8.283620 -16.342398 -3.542820 -5.522373 19.069623 -4.926593 5.697089 110.403317 -61.201038 -133.765487 21.299963 16.956298 35.390806 -3.241277 -62.654881 9.763195 -155.787837 66.805778 -153.857337 -9.949608 -26.147561 8.436313 0.184886 -0.796206 0.112008 3.429419 -46.965191 0.490539 -179.934532 56.605312 179.238090 -3.499963 -42.277948 4.018351 -0.080124 -6.218545 1.770685
-18.792873 43.768344 25.307569 176.564107 -27.844775 -1.242668 0.690435 22.124677 1.587017 0.043639 3.103166 0.266258 0.085930 5.023832 0.437320 0.497127 18.835770 1.703684 -3.097514 9.774668 -3.220702 -2.589870 -15.374132 -2.751902 13.552714 -0.448204 -5.106391 -17.896986 -5.283081 -5.153885 170.834531 -81.959414 -163.282168 2.648383 8.653889 -8.297095 -16.351527 -3.540342 -5.507410 19.071545 -4.910760 5.688560 110.424354 -61.219991 -133.787689 21.294992 16.966121 35.363688 -3.261983 -62.680820 9.794188 -155.775739 66.810611 -153.838704 -9.884314 -26.159231 8.404491 0.152917 -0.758227 0.098759 3.425460 -46.990978 0.529180 -179.927473 56.602154 179.246111 -3.502200 -42.280759 4.015106 -0.081760 -6.218043 1.770619
-18.787724 43.768040 25.310092 176.545037 -27.830484 -1.251187 0.718547 22.102618 1.613046 0.044295 3.101430 0.265801 0.089474 5.020937 0.435104 0.499518 18.831345 1.703636 -3.092751 9.793824 -3.217615 -2.584649 -15.353796 -2.749287 13.572825 -0.485129 -5.137068 -17.899575 -5.262419 -5.153935 171.330903 -82.027301 -163.760620 2.629729 8.664113 -8.266334 -16.357175 -3.542705 -5.496573 19.065052 -4.900582 5.694570 110.433898 -61.240085 -133.811940 21.301874 16.978358 35.350302 -3.281116 -62.697685 9.820136 -155.833792 66.830893 -153.869336 -9.894654 -26.130214 8.359639 0.156759 -0.754433 0.105048 3.411903 -47.007472 0.566391 -179.931393 56.599456 179.243331 -3.505908 -42.282683 4.007839 -0.082725 -6.218080 1.769660
-18.785235 43.769335 25.308933 176.550277 -27.839489 -1.249408 0.727203 22.099232 1.620605 0.048041 3.094953 0.266407 0.081700 5.026867 0.432404 0.501227 18.826821 1.700452 -3.091211 9.819002 -3.211805 -2.565114 -15.287286 -2.738471 13.582098 -0.514324 -5.153527 -17.889966 -5.264823 -5.162377 171.591103 -82.096575 -164.025549 2.573338 8.670751 -8.222183 -16.354293 -3.570796 -5.476237 19.044223 -4.869826 5.697314 110.410833 -61.246700 -133.785186 21.309338 16.978758 35.357411 -3.278334 -62.690908 9.810097 -155.880226 66.836515 -153.896887 -9.942860 -26.107345 8.346790 0.201482 -0.751975 0.109939 3.409319 -46.996540 0.564179 -179.932628 56.601125 179.244658 -3.499068 -42.281311 3.999082 -0.083301 -6.219929 1.769422
-18.783688 43.771108 25.306193 176.561875 -27.858525 -1.240115 0.713581 22.116258 1.606977 0.055485 3.085202 0.269314 0.077588 5.032290 0.430809 0.512060 18.817590 1.702769 -3.072383 9.856676 -3.204701 -2.592141 -15.287587 -2.735184 13.577271 -0.528225 -5.162388 -17.876824 -5.275240 -5.170009 171.827759 -82.152824 -164.262907 2.534241 8.674322 -8.199746 -16.363620 -3.571500 -5.471390 19.046737 -4.896482 5.703912 110.321000 -61.254306 -133.700196 21.304378 16.990520 35.354274 -3.264761 -62.672682 9.777044 -155.938902 66.838469 -153.942402 -9.964902 -26.062081 8.326002 0.230056 -0.786846 0.117977 3.409788 -46.972853 0.548844 -179.931801 56.605744 179.245217 -3.494359 -42.281145 3.992139 -0.083471 -6.219720 1.770035
-18.781029 43.771866 25.304736 176.566131 -27.869337 -1.231023 0.714825 22.116063 1.602945 0.055799 3.083342 0.269010 0.073968 5.038118 0.429231 0.525556 18.807574 1.705775 -3.074925 9.880598 -3.199647 -2.600175 -15.273970 -2.732214 13.575056 -0.549238 -5.177849 -17.860156 -5.274695 -5.170713 172.688346 -82.235603 -165.091386 2.586226 8.676494 -8.229124 -16.380297 -3.560313 -5.471224 19.047917 -4.909480 5.706014 110.282667 -61.257174 -133.664690 21.304485 16.995135 35.362017 -3.258428 -62.658048 9.757578 -155.979799 66.840603 -153.975724 -9.979251 -26.085438 8.325676 0.231488 -0.763343 0.108624 3.402454 -46.958026 0.544072 -179.934422 56.608485 179.239491 -3.490220 -42.283944 3.978490 -0.083676 -6.217897 1.772018
-18.778974 43.771563 25.304345 176.563181 -27.872548 -1.213138 0.728368 22.096443 1.600954 0.048476 3.093023 0.264731 0.073859 5.035339 0.426803 0.548877 18.783450 1.707852 -3.090195 9.923712 -3.188316 -2.585706 -15.216338 -2.714731 13.559017 -0.549822 -5.182351 -17.845691 -5.264104 -5.167296 172.992631 -82.286023 -165.389812 2.574862 8.680721 -8.255611 -16.408902 -3.543553 -5.460063 19.049024 -4.898940 5.702458 110.247068 -61.255433 -133.640691 21.308623 16.990485 35.389079 -3.273041 -62.652177 9.759973 -155.982073 66.840386 -153.995488 -9.973882 -26.102797 8.327952 0.213223 -0.749173 0.098774 3.420859 -46.952129 0.523967 -179.941047 56.610988 179.236227 -3.493662 -42.283079 3.975264 -0.082923 -6.218142 1.771670
-18.776553 43.771321 25.302984 176.569055 -27.882250 -1.200508 0.726190 22.094823 1.593170 0.049421 3.091056 0.264704 0.075099 5.033048 0.426595 0.555338 18.777803 1.709091 -3.095725 9.946050 -3.183086 -2.584820 -15.193905 -2.705124 13.544284 -0.539142 -5.181047 -17.838365 -5.264254 -5.167060 173.212569 -82.307708 -165.589914 2.565021 8.688631 -8.298980 -16.420839 -3.549341 -5.445157 19.047448 -4.880794 5.696170 110.201862 -61.238115 -133.612476 21.303788 16.981609 35.429190 -3.281952 -62.640541 9.751603 -156.022620 66.842420 -154.037359 -9.998390 -26.122716 8.328936 0.225586 -0.740553 0.095963 3.422716 -46.939284 0.510449 -179.944418 56.613123 179.232161 -3.495666 -42.285886 3.969825 -0.082917 -6.215825 1.771666
-18.773660 43.770367 25.302221 176.571412 -27.888461 -1.190007 0.726796 22.089217 1.588989 0.050644 3.088806 0.264606 0.079602 5.031254 0.426507 0.560744 18.770613 1.710383 -3.097967 9.966690 -3.175922 -2.588393 -15.172133 -2.696357 13.543907 -0.555357 -5.191405 -17.810174 -5.263151 -5.169193 173.233943 -82.356576 -165.638276 2.556092 8.697166 -8.341791 -16.435783 -3.552951 -5.430709 19.045920 -4.856346 5.688283 110.176042 -61.232230 -133.592679 21.317349 16.969473 35.460434 -3.299785 -62.632389 9.752566 -156.041367 66.839807 -154.061013 -9.995784 -26.146318 8.328144 0.238077 -0.733297 0.089709 3.422180 -46.932222 0.504248 -179.938389 56.612879 179.233708 -3.492080 -42.285520 3.970383 -0.085955 -6.216627 1.765944
